<?xml version="1.0" standalone="no"?>
<!DOCTYPE svg PUBLIC "-//W3C//DTD SVG 20010904//EN"
 "http://www.w3.org/TR/2001/REC-SVG-20010904/DTD/svg10.dtd">
<svg version="1.0" xmlns="http://www.w3.org/2000/svg"
 width="700.000000pt" height="700.000000pt" viewBox="0 0 700.000000 700.000000"
 preserveAspectRatio="xMidYMid meet">
<metadata>
Created by potrace 1.11, written by Peter Selinger 2001-2013
</metadata>
<g transform="translate(0.000000,700.000000) scale(0.100000,-0.100000)"
fill="#000000" stroke="none">
<path d="M2600 6408 c-113 -13 -202 -56 -277 -136 -45 -47 -72 -93 -193 -327
-40 -77 -85 -162 -100 -190 -15 -27 -65 -122 -110 -210 -46 -88 -102 -196
-125 -240 -174 -329 -168 -317 -168 -366 1 -74 29 -108 136 -171 50 -31 265
-158 477 -283 212 -126 401 -236 420 -246 46 -23 104 -16 146 16 43 33 8 -28
364 625 167 305 341 622 386 703 l81 148 17 -25 c9 -14 16 -27 16 -30 0 -2 23
-44 51 -93 29 -48 63 -108 77 -133 14 -25 98 -173 187 -330 89 -157 167 -295
174 -308 10 -20 9 -27 -13 -52 -25 -30 -27 -70 -5 -96 8 -9 351 -154 379 -160
3 0 16 -5 30 -11 200 -84 433 -173 453 -173 27 0 61 34 73 73 3 12 73 203 155
424 82 221 149 409 149 418 0 26 -46 65 -78 65 -27 0 -32 7 -70 88 -22 48 -97
204 -167 347 -70 143 -152 311 -182 373 -42 87 -69 128 -113 172 -62 62 -153
112 -230 126 -56 10 -1850 12 -1940 2z"/>
<path d="M5640 4164 c-25 -15 -101 -60 -170 -103 -69 -42 -137 -83 -151 -91
-15 -8 -124 -73 -243 -145 -119 -71 -224 -135 -234 -140 -173 -101 -195 -122
-206 -200 -8 -54 4 -77 242 -448 405 -633 671 -1052 668 -1055 -2 -1 -241 -4
-532 -5 -483 -2 -530 -1 -546 15 -29 29 -55 39 -80 29 -13 -5 -95 -84 -183
-176 -88 -92 -202 -211 -253 -264 -224 -231 -232 -240 -232 -266 0 -26 21 -51
155 -190 290 -300 471 -488 475 -494 3 -4 16 -14 29 -23 26 -19 57 -12 89 20
18 18 42 19 486 17 257 -1 491 2 519 6 79 13 174 65 239 130 49 51 72 89 164
276 373 761 379 772 658 1347 53 109 103 225 111 258 26 111 9 238 -45 334
-15 27 -195 300 -398 605 -278 416 -378 558 -402 572 -45 24 -106 21 -160 -9z"/>
<path d="M1640 3995 c-146 -22 -256 -38 -500 -71 -58 -7 -125 -16 -149 -20
-27 -3 -53 -15 -67 -29 -26 -26 -32 -73 -12 -93 9 -9 -52 -108 -267 -429 -154
-230 -290 -444 -303 -477 -31 -75 -37 -198 -16 -282 9 -32 52 -129 96 -214 45
-85 119 -229 166 -320 46 -91 101 -196 122 -235 20 -38 75 -142 120 -230 46
-88 86 -164 90 -170 4 -5 40 -73 80 -150 40 -77 76 -144 80 -150 4 -5 40 -73
80 -150 80 -154 101 -186 163 -246 39 -37 132 -89 187 -104 14 -4 374 -9 800
-11 753 -3 776 -3 816 16 26 13 48 34 63 61 l23 40 0 609 c0 674 1 655 -66
703 l-31 22 -886 5 -887 5 194 335 c106 184 226 392 266 462 l73 127 35 -5
c27 -4 42 0 64 17 29 23 29 23 22 108 -3 47 -8 95 -10 107 -2 12 -7 45 -11 75
-3 30 -8 65 -10 79 -10 69 -15 109 -20 145 -44 353 -56 438 -65 455 -11 21
-50 41 -73 39 -7 -1 -82 -12 -167 -24z"/>
</g>
</svg>
